<?xml version="1.0" encoding="UTF-8" standalone="no"?>
<svg
   xmlns:dc="http://purl.org/dc/elements/1.1/"
   xmlns:cc="http://creativecommons.org/ns#"
   xmlns:rdf="http://www.w3.org/1999/02/22-rdf-syntax-ns#"
   xmlns:svg="http://www.w3.org/2000/svg"
   xmlns="http://www.w3.org/2000/svg"
   xmlns:xlink="http://www.w3.org/1999/xlink"
   xmlns:sodipodi="http://sodipodi.sourceforge.net/DTD/sodipodi-0.dtd"
   xmlns:inkscape="http://www.inkscape.org/namespaces/inkscape"
   id="a581a3db-2a43-4a80-ac9d-86c7ddaa56ac"
   data-name="Layer 1"
   width="903.82216"
   height="748.21523"
   viewBox="0 0 903.82216 748.21523"
   version="1.1"
   sodipodi:docname="a.svg"
   inkscape:version="0.92.4 (5da689c313, 2019-01-14)">
  <metadata
     id="metadata119">
    <rdf:RDF>
      <cc:Work
         rdf:about="">
        <dc:format>image/svg+xml</dc:format>
        <dc:type
           rdf:resource="http://purl.org/dc/dcmitype/StillImage" />
      </cc:Work>
    </rdf:RDF>
  </metadata>
  <sodipodi:namedview
     pagecolor="#ffffff"
     bordercolor="#666666"
     borderopacity="1"
     objecttolerance="10"
     gridtolerance="10"
     guidetolerance="10"
     inkscape:pageopacity="0"
     inkscape:pageshadow="2"
     inkscape:window-width="1024"
     inkscape:window-height="744"
     id="namedview117"
     showgrid="false"
     inkscape:zoom="0.31541727"
     inkscape:cx="451.91107"
     inkscape:cy="374.1076"
     inkscape:window-x="0"
     inkscape:window-y="0"
     inkscape:window-maximized="1"
     inkscape:current-layer="a581a3db-2a43-4a80-ac9d-86c7ddaa56ac" />
  <defs
     id="defs12">
    <linearGradient
       id="fbde297d-ab9b-4106-ad77-f89466c8290f"
       x1="963.63174"
       y1="410.81483"
       x2="963.63174"
       y2="349.80222"
       gradientUnits="userSpaceOnUse">
      <stop
         offset="0"
         stop-color="gray"
         stop-opacity="0.25"
         id="stop2" />
      <stop
         offset="0.53514"
         stop-color="gray"
         stop-opacity="0.12"
         id="stop4" />
      <stop
         offset="1"
         stop-color="gray"
         stop-opacity="0.1"
         id="stop6" />
    </linearGradient>
    <linearGradient
       id="b55aa966-9953-40ef-b933-2af4fb1d4bf9"
       x1="514.09486"
       y1="824.10762"
       x2="514.09486"
       y2="75.89238"
       xlink:href="#fbde297d-ab9b-4106-ad77-f89466c8290f" />
    <linearGradient
       id="a395c18f-205e-4149-866b-9e6fd62c4f5f"
       x1="725.6791"
       y1="487.07514"
       x2="725.6791"
       y2="484.07514"
       xlink:href="#fbde297d-ab9b-4106-ad77-f89466c8290f" />
    <linearGradient
       id="bfa05cfc-d7ec-49e0-8f8e-7dcb2e2661be"
       x1="647.53882"
       y1="341.17819"
       x2="647.53882"
       y2="183.07696"
       xlink:href="#fbde297d-ab9b-4106-ad77-f89466c8290f" />
  </defs>
  <title
     id="title14">Hello</title>
  <g
     id="g146"
     transform="matrix(0.46867244,0,0,0.46867244,308.58465,243.50103)">
    <path
       id="path140"
       d="m 482.284,184.663 c -13.761,-16.711 -31.476,-29.701 -51.268,-37.848 4.484,-4.618 7.253,-10.91 7.253,-17.84 0,-9.853 -5.592,-18.42 -13.765,-22.709 l 34.109,-39.432 c 1.999,-2.311 2.396,-5.604 1.004,-8.324 L 432.319,5.181 c -1.283,-2.506 -3.861,-4.083 -6.676,-4.083 h -88.345 c -2.815,0 -5.394,1.577 -6.676,4.083 L 303.326,58.51 c -1.392,2.72 -0.995,6.013 1.004,8.324 l 34.109,39.432 c -8.174,4.289 -13.765,12.856 -13.765,22.709 0,6.924 2.765,13.212 7.242,17.829 -12.665,5.195 -24.466,12.377 -34.987,21.33 -0.31,-0.395 -0.63,-0.781 -0.943,-1.172 -1.941,-10.347 -12.458,-62.619 -35.78,-114.109 -6.186,-13.656 -19.899,-22.48 -34.935,-22.48 h -118.15 c -15.037,0 -28.749,8.824 -34.935,22.48 C 48.864,104.341 38.347,156.612 36.406,166.961 13.639,195.404 0,231.457 0,270.64 c 0,39.184 13.639,75.237 36.408,103.681 1.274,6.773 6.309,31.89 16.361,63.223 1.021,3.183 3.968,5.211 7.14,5.211 0.759,0 1.532,-0.116 2.293,-0.36 3.944,-1.266 6.116,-5.489 4.851,-9.433 -4.555,-14.198 -8.073,-27.206 -10.648,-37.669 29.302,25.839 67.744,41.542 109.791,41.542 42.037,0 80.471,-15.696 109.77,-41.524 -5.392,21.858 -14.904,54.867 -29.427,86.928 -3.759,8.3 -12.107,13.664 -21.268,13.664 H 107.12 c -9.162,0 -17.51,-5.363 -21.268,-13.663 -3.138,-6.932 -6.158,-14.146 -8.977,-21.44 -1.493,-3.864 -5.836,-5.784 -9.699,-4.293 -3.864,1.493 -5.786,5.836 -4.292,9.699 2.92,7.557 6.05,15.033 9.304,22.221 6.182,13.654 19.894,22.476 34.932,22.476 h 118.15 c 15.038,0 28.75,-8.822 34.932,-22.475 23.325,-51.492 33.842,-103.76 35.782,-114.109 1.295,-1.618 2.563,-3.258 3.799,-4.925 23.12,18.58 51.812,28.729 81.688,28.729 71.974,0 130.53,-58.556 130.53,-130.53 C 512,237.387 501.446,207.936 482.284,184.663 Z M 350.305,139.607 c -5.863,0 -10.633,-4.77 -10.633,-10.633 0,-5.863 4.77,-10.633 10.633,-10.633 h 62.331 c 5.863,0 10.633,4.77 10.633,10.633 0,5.863 -4.77,10.633 -10.633,10.633 z m 2.549,-70.175 9.403,33.91 h -6.515 L 326.41,69.432 Z m 83.677,0 -29.332,33.91 h -6.515 l 9.403,-33.91 z m -51.413,33.91 h -7.296 l -9.403,-33.91 h 26.101 z m 55.559,-48.91 h -29.922 l -6.29,-38.333 h 16.591 z m -51.413,-38.334 6.29,38.333 h -28.169 l 6.29,-38.333 z m -47.38,0 h 16.591 l -6.29,38.333 H 322.263 Z M 85.85,59.042 c 3.761,-8.304 12.11,-13.669 21.271,-13.669 h 118.147 c 9.161,0 17.51,5.366 21.271,13.669 14.521,32.059 24.033,65.068 29.425,86.927 -29.299,-25.828 -67.734,-41.524 -109.77,-41.524 -42.039,0 -80.476,15.698 -109.776,41.529 C 61.805,124.13 71.313,91.137 85.85,59.042 Z m 80.345,362.792 C 82.826,421.834 15,354.009 15,270.64 15,187.271 82.826,119.445 166.195,119.445 c 83.369,0 151.195,67.826 151.195,151.195 0,83.369 -67.826,151.194 -151.195,151.194 z M 381.47,383.122 c -26.863,0 -52.644,-9.271 -73.27,-26.217 3.92,-6.429 7.407,-13.149 10.44,-20.11 17.103,15.539 39.418,24.267 62.83,24.267 51.55,0 93.49,-41.931 93.49,-93.47 0,-21.686 -7.589,-42.812 -21.368,-59.487 -2.638,-3.193 -7.366,-3.644 -10.559,-1.004 -3.193,2.639 -3.643,7.366 -1.004,10.559 11.563,13.993 17.932,31.727 17.932,49.933 0,43.269 -35.21,78.47 -78.49,78.47 -21.679,0 -42.241,-8.911 -57.044,-24.582 5.163,-16.032 7.964,-33.114 7.964,-50.84 0,-19.384 -3.347,-37.998 -9.474,-55.309 14.9,-16.718 36.013,-26.229 58.555,-26.229 14.312,0 28.307,3.883 40.473,11.23 3.545,2.142 8.156,1.002 10.297,-2.543 2.142,-3.545 1.003,-8.156 -2.543,-10.297 -14.505,-8.76 -31.182,-13.39 -48.227,-13.39 -24.436,0 -47.458,9.386 -64.778,26.081 -3.227,-6.865 -6.906,-13.476 -11.006,-19.791 14.772,-12.851 32.47,-21.718 51.583,-25.785 h 48.409 c 25.363,5.41 48.436,19.443 65.026,39.591 16.955,20.593 26.294,46.658 26.294,73.393 0,63.703 -51.827,115.53 -115.53,115.53 z"
       inkscape:connector-curvature="0" />
    <path
       id="path142"
       d="m 166.195,140.415 c -71.806,0 -130.225,58.419 -130.225,130.225 0,71.806 58.418,130.225 130.225,130.225 71.807,0 130.225,-58.419 130.225,-130.225 0,-71.806 -58.419,-130.225 -130.225,-130.225 z m 7.5,245.199 V 349.02 c 0,-4.142 -3.358,-7.5 -7.5,-7.5 -4.142,0 -7.5,3.358 -7.5,7.5 v 36.594 C 101.123,381.896 54.939,335.712 51.221,278.14 h 36.594 c 4.142,0 7.5,-3.358 7.5,-7.5 0,-4.142 -3.358,-7.5 -7.5,-7.5 H 51.221 c 3.718,-57.572 49.902,-103.757 107.474,-107.475 v 36.594 c 0,4.142 3.358,7.5 7.5,7.5 4.142,0 7.5,-3.358 7.5,-7.5 v -36.594 c 57.572,3.718 103.757,49.903 107.474,107.475 h -36.594 c -4.142,0 -7.5,3.358 -7.5,7.5 0,4.142 3.358,7.5 7.5,7.5 h 36.594 c -3.717,57.571 -49.903,103.756 -107.474,107.474 z"
       inkscape:connector-curvature="0" />
    <path
       id="path144"
       d="m 186.318,239.91 -20.124,20.124 -49.786,-49.787 c -2.928,-2.929 -7.677,-2.929 -10.606,0 -2.929,2.929 -2.929,7.678 0,10.606 l 55.089,55.09 c 1.406,1.407 3.314,2.197 5.303,2.197 1.989,0 3.897,-0.79 5.303,-2.197 l 25.427,-25.427 c 2.929,-2.929 2.929,-7.678 0,-10.606 -2.928,-2.929 -7.677,-2.929 -10.606,0 z"
       inkscape:connector-curvature="0" />
  </g>
  <g
     id="g163"
     transform="matrix(0.46868434,0,0,0.46868434,601.69307,50.519908)">
    <path
       id="path159"
       d="m 375.472,449.911 c 34.464,0 62.502,-28.039 62.502,-62.502 v -39.255 c 9.286,-3.137 15.992,-11.926 15.992,-22.257 0,-12.953 -10.538,-23.491 -23.492,-23.491 -12.953,0 -23.491,10.538 -23.491,23.491 0,10.331 6.706,19.119 15.991,22.257 v 39.255 c 0,26.193 -21.31,47.502 -47.502,47.502 -26.193,0 -47.503,-21.31 -47.503,-47.502 v -39.255 c 9.285,-3.138 15.991,-11.926 15.991,-22.257 0,-12.953 -10.538,-23.491 -23.491,-23.491 -12.953,0 -23.491,10.538 -23.491,23.491 0,10.331 6.706,19.119 15.991,22.257 v 39.255 c 0,34.463 28.039,62.502 62.503,62.502 z m 55.002,-132.506 c 4.683,0 8.492,3.809 8.492,8.491 0,4.682 -3.81,8.492 -8.492,8.492 -4.682,0 -8.491,-3.81 -8.491,-8.492 0,-4.682 3.809,-8.491 8.491,-8.491 z m -110.005,0 c 4.682,0 8.491,3.809 8.491,8.491 0,4.682 -3.81,8.492 -8.491,8.492 -4.681,0 -8.491,-3.81 -8.491,-8.492 0,-4.682 3.81,-8.491 8.491,-8.491 z"
       inkscape:connector-curvature="0" />
    <path
       id="path161"
       d="m 37.089,511.986 h 444.688 c 11.476,0 20.419,-9.982 19.168,-21.384 l -8.756,-79.901 c -0.451,-4.119 -4.146,-7.084 -8.272,-6.639 -4.117,0.452 -7.089,4.155 -6.638,8.272 l 8.756,79.902 c 0.277,2.535 -1.705,4.75 -4.258,4.75 h -212.602 -0.01 c -2.533,0 -4.537,-2.194 -4.258,-4.75 l 21.63,-197.371 c 0.238,-2.175 2.069,-3.816 4.258,-3.816 h 169.354 c 2.188,0 4.019,1.641 4.258,3.816 l 9.037,82.469 c 0.451,4.117 4.129,7.087 8.272,6.639 4.117,-0.452 7.089,-4.155 6.638,-8.272 l -9.037,-82.469 c -1.074,-9.795 -9.314,-17.182 -19.168,-17.182 H 377.175 L 365.593,170.36 c -1.456,-13.291 -12.637,-23.313 -26.007,-23.313 H 309.747 V 104.28 C 309.747,46.78 262.967,0 205.467,0 c -57.5,0 -104.28,46.78 -104.28,104.28 v 42.767 H 71.349 c -13.371,0 -24.552,10.022 -26.008,23.313 L 11.082,482.974 c -1.695,15.475 10.446,29.012 26.007,29.012 z M 25.993,484.607 60.252,171.994 c 0.622,-5.67 5.393,-9.947 11.098,-9.947 h 29.838 v 27.928 c -9.798,3.172 -16.905,12.38 -16.905,23.221 0,13.457 10.948,24.405 24.405,24.405 13.457,0 24.405,-10.948 24.405,-24.405 0,-10.841 -7.107,-20.049 -16.905,-23.221 v -27.928 h 71.78 c 4.143,0 7.5,-3.358 7.5,-7.5 0,-4.142 -3.357,-7.5 -7.5,-7.5 h -71.78 V 104.28 c 0,-49.229 40.051,-89.28 89.28,-89.28 49.229,0 89.28,40.051 89.28,89.28 v 42.767 h -71.78 c -4.143,0 -7.5,3.358 -7.5,7.5 0,4.142 3.357,7.5 7.5,7.5 h 71.78 v 27.928 c -9.798,3.172 -16.904,12.38 -16.904,23.221 0,13.457 10.947,24.405 24.404,24.405 13.457,0 24.405,-10.948 24.405,-24.405 0,-10.841 -7.107,-20.049 -16.905,-23.221 v -27.928 h 29.839 c 5.704,0 10.475,4.276 11.097,9.947 l 11.402,104.056 h -71.29 c -9.855,0 -18.096,7.387 -19.168,17.183 l -21.63,197.371 c -0.236,2.148 -0.046,4.562 0.369,6.383 H 37.089 c -6.65,-0.001 -11.821,-5.754 -11.096,-12.38 z m 82.694,-280.816 c 5.187,0 9.405,4.219 9.405,9.405 0,5.186 -4.219,9.405 -9.405,9.405 -5.186,0 -9.405,-4.219 -9.405,-9.405 0,-5.186 4.218,-9.405 9.405,-9.405 z m 193.56,0 c 5.187,0 9.405,4.219 9.405,9.405 0,5.186 -4.219,9.405 -9.405,9.405 -5.186,0 -9.404,-4.219 -9.404,-9.405 0,-5.186 4.219,-9.405 9.404,-9.405 z"
       inkscape:connector-curvature="0" />
  </g>
  <g
     id="g192"
     transform="matrix(0.62489474,0,0,0.62489474,18.582962,42.986567)">
    <path
       id="path175"
       d="m 161.54297,56.144531 c 5.26172,2.261719 9.99219,3.382813 14.3125,3.382813 1.78515,0 3.5039,-0.191406 5.16015,-0.574219 9.14454,-2.109375 14.95313,-8.027344 15.9375,-16.238281 C 198.19141,32.375 191.25,20.304688 181.15625,15.234375 c -10.11328,-5.078125 -22.63672,-0.09766 -29.28906,7.167969 -6.67578,7.289062 -7.8086,16.257812 -3.03516,23.992187 3.23047,5.234375 8.80078,8.070313 12.71094,9.75 z m -3.73438,-28.296875 c 4.72266,-5.15625 13.39063,-8.585937 19.72657,-5.40625 7.13671,3.582032 12.2539,12.246094 11.41015,19.3125 -0.58203,4.839844 -3.85937,7.984375 -9.74219,9.34375 -3.92968,0.910156 -8.66796,0.136719 -14.48046,-2.359375 -4.61329,-1.984375 -7.48438,-4.074219 -9.03125,-6.578125 -3.84766,-6.238281 -0.32422,-11.644531 2.11718,-14.3125 z m 0,0"
       inkscape:connector-curvature="0" />
    <path
       id="path177"
       d="m 334.83984,360.37891 c -15.22265,-34.36329 -44.23828,-55.28125 -70.61718,-71.21094 -10.7461,-6.49219 -22.9336,-14.30469 -31.54688,-24.91016 -8.93359,-10.99609 -12.80859,-24.23437 -10.36719,-35.42187 0.11329,-0.52735 0.11719,-1.04688 0.0273,-1.54688 0.66406,-0.5664 1.3164,-1.14062 1.94922,-1.73047 9.84765,-9.20312 17.25781,-21.63672 22.14062,-37.04687 0.91406,0.0781 1.82813,0.125 2.74219,0.125 7.98047,0 15.7539,-2.95313 21.09765,-8.1875 7.15235,-7.00781 9.64454,-18.03516 6.05469,-26.81641 -3.42578,-8.38281 -12.28125,-13.82812 -20.8789,-13.36719 0.47656,-7.07812 0.54687,-14.1875 0.20312,-21.30468 2.70313,-0.0234 10.04688,-0.21485 12.63672,-6.15235 1.22266,-2.80859 1.51953,-7.39843 -4.02734,-13.30859 -2.19922,-2.34375 -4.55079,-4.570312 -7.01172,-6.699219 0.0391,-0.117187 0.0937,-0.226562 0.125,-0.351562 4.6914,-18.613281 1.83593,-38.796875 -7.83594,-55.375 C 239.85937,20.492188 223.69922,8.066406 205.1875,2.984375 186.89062,-2.035156 167.58594,0.25 150.92578,2.789062 136.40234,5 119.89844,8.242188 107.85938,18.75 96.003906,29.097656 91.378906,43.753906 89.589844,54.226562 c -2.21875,12.980469 -1.449219,26.089844 -0.703125,38.765626 0.02344,0.433593 0.132812,0.839843 0.285156,1.226562 -6.253906,5.765625 -14.105469,14.55078 -12.28125,20.96875 0.660156,2.30859 2.617187,5.10547 8.144531,5.76953 0.425782,7.91016 1.273438,15.78906 2.53125,23.59766 -8.09375,0.63672 -15.664062,5.70703 -19.125,13.13281 -3.933594,8.43359 -2.140625,18.97266 4.355469,25.63281 4.332031,4.44141 10.4375,6.83985 16.558594,6.83594 2.367187,0 4.738281,-0.36328 7.007812,-1.10156 3.078125,16.73437 13.660159,32.65625 28.925779,42.61718 0.1836,0.11719 0.375,0.23047 0.5625,0.34766 v 0.0234 c 2.32031,10.83594 -1.6875,23.38281 -10.71875,33.5625 -8.59375,9.6875 -20.308591,16.27344 -31.691404,21.94922 -2.273437,1.13281 -4.558594,2.24609 -6.847656,3.35547 -9.820312,4.77734 -19.976562,9.71484 -29.046875,16.38281 -17.585937,12.92578 -31.0625,32.22656 -38.980469,55.8164 -6.515625,19.40625 -9.265625,41.39844 -8.414062,67.23829 0.070312,2.16796 1.851562,3.89453 4.023437,3.89843 l 3.148438,0.004 1.148437,51.33984 c 0.140625,6.35938 0.667969,12.96875 5.304688,17.7461 3.527344,3.63281 8.304687,4.95312 12.9375,5.83593 7.398437,1.40625 14.855468,2.11329 22.320312,2.11329 6.632813,0 13.265625,-0.5586 19.863282,-1.67188 0.01953,0 0.03516,-0.0117 0.05469,-0.0156 3.109375,0.69531 6.164063,0.72656 8.308594,0.74218 l 185.152338,1.48047 c 0.53516,0.004 1.08985,0.008 1.66406,0.008 0.82032,0 1.67579,-0.008 2.55469,-0.043 0.31641,0.0859 0.64063,0.14453 0.98438,0.14843 3.21484,0.0469 6.34765,0.0664 9.40625,0.0664 13.67968,0 25.92578,-0.44531 37.94531,-1.375 6.16797,-0.47656 12.41797,-1.60547 16.39062,-6.58594 2.92579,-3.66406 3.50782,-8.19531 3.85547,-12.51953 1.41016,-17.53516 1.73047,-35.33594 0.96094,-52.92187 1.09766,-0.45704 2.16016,-1.03516 3.14453,-1.83204 4.07031,-3.28906 5.10156,-8.40625 5.57031,-12.97656 2.22657,-21.61719 -1.25,-43.54297 -10.05078,-63.41015 z M 223.42969,346.53125 c -2.31641,4.53125 -5.62891,10.04687 -10.71875,12.49219 -4.64453,2.23437 -10.75391,1.72656 -15.9375,-1.32422 -4.64063,-2.73438 -8.67969,-7.45703 -11.6836,-13.66016 -2.35546,-4.86719 -3.93359,-10.23437 -5.35156,-15.5664 11.16797,-1.38282 22.47656,-6.9336 32.10938,-15.97657 8.41406,-7.89843 14.82422,-17.49218 20.4375,-27.21093 3.79687,20.60156 0.67187,42.62109 -8.85547,61.24609 z m -41.6875,43.22656 c 0.19531,5.10547 0.41797,10.89063 -1.8086,15.36719 -1.71875,3.46484 -5.96875,6.375 -9.32031,5.00391 -1.85937,-0.75782 -3.44922,-2.89063 -4.15234,-5.57032 -0.76953,-2.95312 -0.58594,-6.35547 -0.41016,-9.64843 l 2.29297,-42.6211 c 2.70703,-3.84765 4.74219,-8.05469 6.39844,-12.32422 0.88281,2.56641 1.88672,5.10547 3.08984,7.58985 0.75781,1.5664 1.58985,3.03906 2.46485,4.45312 z m -21.3125,-40.33984 c -4.65235,5.78125 -12.83203,10.63281 -20.60547,8.44531 -4.33984,-1.21875 -8.38281,-4.64844 -11.38281,-9.64844 -2.90235,-4.83593 -4.60157,-10.5625 -6.24219,-16.10547 -4.22656,-14.25 -8.5625,-28.90625 -10.17969,-43.76953 8.25781,11.0625 18.39063,20.83203 29.73438,28.59375 10.3125,7.0586 19.30468,10.76953 28.30468,11.6836 h 0.0195 c -2.27344,7.45703 -4.88672,14.89453 -9.64844,20.80078 z m 64.83594,-230.26953 22.29687,-0.14063 c 0.60938,12.17578 -0.0195,24.32813 -1.91406,36.32422 -0.97656,-1.28906 -2.08985,-2.48047 -3.32813,-3.53906 -1.95703,-1.66406 -4.0625,-2.90625 -6.09765,-4.10938 -2.01953,-1.1914 -3.92578,-2.3164 -5.42188,-3.71484 -3.27734,-3.07031 -4.62109,-7.50391 -5.17187,-10.6875 -0.76172,-4.41406 -0.55078,-9.17969 -0.34375,-13.78516 0.004,-0.12109 -0.0156,-0.23047 -0.0195,-0.34765 z m 43.58984,37.53125 c 2.34375,5.73437 0.5625,13.30859 -4.23438,18.00781 -3.97265,3.89062 -9.88671,6.01953 -15.96875,5.87891 0.48829,-1.98829 0.95313,-4 1.36329,-6.07032 0.0586,-0.28906 0.082,-0.57812 0.0742,-0.85937 2.125,-8.30078 3.66797,-16.71485 4.61719,-25.1836 5.54688,-0.94531 11.87109,2.65235 14.14844,8.22657 z M 97.535156,55.582031 c 1.570313,-9.179687 5.554684,-21.96875 15.625004,-30.757812 10.40625,-9.085938 24.96093,-11.929688 38.97656,-14.066407 15.83984,-2.414062 34.14453,-4.601562 50.91406,0.0039 16.4961,4.527343 30.89453,15.597656 39.51172,30.371093 8.07031,13.835938 10.8125,30.484376 7.69922,46.164063 C 237.125,77.839844 221.25,71.125 204.07813,67.953125 c -20.8086,-3.84375 -43.57422,-2.777344 -67.66407,3.167969 -16.29297,4.019531 -29.29687,9.542968 -39.742185,16.859375 -0.597656,-10.792969 -0.945313,-21.8125 0.863281,-32.398438 z m 3.402344,39.25 c 9.67188,-6.863281 21.90625,-12.058593 37.41016,-15.882812 22.96875,-5.667969 44.59375,-6.699219 64.26562,-3.066407 22.16406,4.089844 41.96485,14.4375 55.75781,29.132808 2.42969,2.58985 2.72657,4.09375 2.51563,4.57032 -0.0937,0.21484 -0.79688,1.28125 -5.50781,1.3125 l -117.39844,0.73047 c -6.75,0.043 -13.79688,0.4375 -20.61328,0.8164 -10.28516,0.57813 -20.917971,1.16797 -30.703128,0.5625 -1.042968,-0.0625 -1.652343,-0.21484 -1.980468,-0.33203 0.535156,-3.4375 9.769531,-13.242186 16.253906,-17.843749 z m 0.49219,65.445309 c -0.28516,1.98047 -0.57031,3.92188 -0.96485,5.7461 -4.011715,-14.60157 -6.460934,-29.59766 -7.328121,-44.73047 0.820312,0.0117 1.636719,0.0352 2.460937,0.0352 7.359374,0 14.878904,-0.42187 22.218754,-0.83203 2.16797,-0.12109 4.35547,-0.23828 6.55078,-0.35156 -0.008,0.0547 -0.0234,0.10156 -0.0273,0.15234 -0.33203,4.98438 -2.60937,9.8086 -6.25,13.23047 -1.16406,1.09766 -2.5039,2.10157 -3.92578,3.16407 -2.45703,1.83593 -5,3.73437 -7.05859,6.42187 -3.91406,5.09766 -4.80859,11.23047 -5.67578,17.16406 z m -6.343752,20.65235 c -5.433594,2.36718 -12.382813,1.0039 -16.519532,-3.23828 -4.140625,-4.24219 -5.324218,-11.22657 -2.820312,-16.59766 2.328125,-4.98828 7.757812,-8.42578 13.257812,-8.54297 1.671875,8.40625 3.832032,16.71484 6.460938,24.88672 -0.03516,1.12109 -0.03125,2.24609 0.0078,3.36719 -0.128906,0.043 -0.261718,0.0703 -0.386718,0.125 z m 8.421872,-2.22657 c 4.10938,-5.02734 5.0625,-11.5 5.90235,-17.26562 0.75,-5.13281 1.45703,-9.98438 4.08984,-13.41406 1.38281,-1.80469 3.37891,-3.29688 5.49219,-4.875 1.53906,-1.14844 3.1289,-2.33985 4.625,-3.7461 5.10547,-4.80468 8.30078,-11.57422 8.76562,-18.5664 0.0234,-0.35157 -0.0117,-0.69532 -0.0781,-1.02735 1.92969,-0.0586 3.84765,-0.10547 5.72656,-0.11718 l 79.19531,-0.49219 c -0.22656,5.01562 -0.45312,10.20312 0.45703,15.45703 1.08985,6.30469 3.71875,11.5625 7.60547,15.19922 2.14453,2.00781 4.53125,3.41406 6.83594,4.77344 1.82031,1.07421 3.53906,2.08984 4.96094,3.30078 4.00781,3.41797 6.03125,9.1875 5.03515,14.35937 -0.0547,0.28906 -0.0703,0.57813 -0.0664,0.86719 -4.06641,20.22656 -11.89844,35.87891 -23.27735,46.51172 -8.21093,7.66797 -19.84375,12.96875 -33.64062,15.32031 -20.15625,3.4375 -40.36328,-0.23437 -55.44922,-10.07031 -16.16016,-10.54688 -26.33594,-28.57813 -26.17969,-46.21485 z m 17.65235,92.25391 c 9.04687,-10.19922 13.78906,-22.58984 13.34375,-34.22266 10.79297,4.97266 23.125,7.57032 35.8789,7.57032 5.32422,0 10.72657,-0.44922 16.11328,-1.3711 10.1875,-1.73437 19.35938,-4.97265 27.11719,-9.5039 -0.62109,11.97265 3.92578,24.98437 12.80469,35.91406 1.08203,1.33203 2.21094,2.61328 3.37891,3.85937 -6.42579,11.82422 -13.54297,24.10157 -23.46875,33.41797 -10.73438,10.07813 -23.65625,15.17188 -35.45704,13.97266 -7.60156,-0.76953 -15.41015,-4.04688 -24.5625,-10.3125 -12.58984,-8.61719 -23.58984,-19.87109 -31.95312,-32.65625 2.39062,-2.0625 4.67578,-4.26953 6.80469,-6.66797 z M 28.222656,501.24609 c -3.335937,-0.63281 -6.695312,-1.5 -8.664062,-3.52734 -2.601563,-2.68359 -2.917969,-7.35547 -3.027344,-12.3125 l -1.144531,-51.14844 40.371093,0.0586 0.675782,56.4375 c 0.03906,3.28515 0.09766,8.01953 2.410156,12.00781 -10.21875,0.91015 -20.484375,0.41797 -30.621094,-1.51563 z m 298.953124,-10.375 c -0.25781,3.21094 -0.61328,6.25 -2.12109,8.14063 -2.05078,2.57031 -6.35547,3.23437 -10.70703,3.57031 -9.6875,0.75 -19.53907,1.17969 -30.19922,1.30859 4.98828,-6.89843 5.00781,-16.64453 5.01953,-21.84375 l 0.0742,-42.46875 c 4.21875,0.0703 8.4414,0.28125 12.55469,0.48438 5.17968,0.25391 10.46484,0.51562 15.84765,0.51562 3.46875,0 6.97656,-0.11718 10.52344,-0.40234 0.6875,16.85547 0.36328,33.89844 -0.99219,50.69531 z m 9.69531,-67.91015 c -0.30078,2.92187 -0.84765,6.10156 -2.62109,7.53515 -1.35938,1.09766 -3.74609,1.39063 -6.07422,1.59375 -8.75781,0.76172 -17.125,0.35157 -25.98437,-0.082 -4.21875,-0.20703 -8.55079,-0.41406 -12.9375,-0.48828 l 0.0625,-35.28125 c 0.004,-2.22656 -1.80079,-4.03125 -4.02735,-4.03516 h -0.004 c -2.22657,0 -4.03125,1.80079 -4.03125,4.02344 l -0.14844,85.8086 c -0.0156,8.05468 -0.73828,15.99218 -5.87891,19.47656 -3.15625,2.14453 -7.64453,2.28515 -12.7539,2.24219 l -185.148341,-1.4805 c -4.226563,-0.0312 -8.910157,-0.28125 -11.027344,-2.85157 -1.59375,-1.93359 -1.761719,-5.11328 -1.804687,-8.76562 l -1.175782,-98.46094 c -0.02344,-2.22656 -1.867187,-4.04297 -4.078125,-3.98437 -2.226562,0.0273 -4.007812,1.85547 -3.984375,4.07812 L 55.660156,426.25 8.105469,426.1836 c -0.433594,-23.17578 2.222656,-43.00781 8.097656,-60.51172 7.28125,-21.6914 20.105469,-40.11718 36.113281,-51.88281 8.480469,-6.23437 18.300782,-11.01172 27.800782,-15.6289 2.308593,-1.125 4.621093,-2.25 6.917968,-3.39453 5.566406,-2.77344 11.214844,-5.77344 16.621094,-9.23438 1.32812,16.85547 6.13281,33.10156 10.80859,48.87109 1.78516,6.02344 3.63282,12.25 7.0586,17.96094 4.0664,6.77344 9.78906,11.48438 16.11718,13.26172 7.9336,2.23438 15.91797,-0.29687 22.16407,-4.70703 l -1.8086,33.5625 c -0.19922,3.72656 -0.42578,7.94531 0.66407,12.11719 1.34765,5.16406 4.67968,9.27734 8.90625,11 1.59375,0.65234 3.21484,0.94531 4.8164,0.94531 6.22266,0 12.10938,-4.46094 14.77344,-9.82813 3.13672,-6.32031 2.86328,-13.49609 2.64062,-19.26171 l -1.05468,-27.58594 c 1.26562,1.03906 2.57812,1.97656 3.9375,2.78125 4.28125,2.51953 9.07031,3.80078 13.69922,3.80078 3.45312,0 6.82031,-0.71094 9.82421,-2.15625 7.26172,-3.49219 11.51172,-10.42969 14.40625,-16.08984 10.52344,-20.57813 13.85938,-44.98047 9.375,-67.67969 6.57032,5.22265 13.57422,9.62109 20.07032,13.54687 25.30078,15.27735 53.09765,35.25782 67.41406,67.57813 8.23437,18.58203 11.48437,39.09375 9.40234,59.3125 z m 0,0"
       inkscape:connector-curvature="0" />
    <path
       id="path179"
       d="m 268.47266,405.99219 c -1.31641,-4.83594 -3.30079,-12.14453 -8.60547,-13.77735 -2.20313,-0.67968 -4.70703,-0.44922 -6.91016,-0.24609 -0.80859,0.0742 -1.57031,0.14453 -2.125,0.14844 l -45.74609,0.3164 c -2.34375,0.0195 -8.56641,0.0625 -11.14453,5.1211 -1.16407,2.28125 -1,4.66797 -0.89454,6.25 l 1.61329,23.86718 c 0.18359,2.73438 0.52734,7.81641 4.28125,10.92188 2.79687,2.3125 6.32421,2.55859 8.66406,2.72656 11.01953,0.77735 22.32422,1.57813 33.65625,1.57813 3.51562,0 7.03125,-0.0781 10.54297,-0.25782 4.92187,-0.25 10.0039,-0.95703 13.82422,-4.39062 3.6289,-3.26563 5.38671,-8.26563 5.375,-15.28516 -0.004,-5.34375 -0.75782,-10.6875 -2.23047,-15.88672 -0.0937,-0.32421 -0.19532,-0.6914 -0.30078,-1.08593 z m -8.23829,26.26562 c -2.04687,1.83985 -5.63671,2.16797 -8.83984,2.33203 -14.34375,0.72657 -29.02734,-0.30859 -43.22266,-1.3125 -1.39062,-0.10156 -3.28906,-0.23437 -4.08984,-0.89843 -1.08594,-0.89453 -1.27734,-3.72657 -1.37891,-5.25 l -1.61328,-23.8711 c -0.0352,-0.51562 -0.11718,-1.73047 0.0352,-2.04297 0,-0.008 0.44922,-0.6914 4.01562,-0.71875 l 45.7461,-0.3164 c 0.89844,-0.004 1.86719,-0.0937 2.80859,-0.17969 1.10938,-0.10156 2.9375,-0.27344 3.69531,-0.10547 0.89454,0.69141 2.00782,3.44922 3.30079,8.21094 0.11328,0.42969 0.22265,0.82422 0.32031,1.17578 1.27734,4.48438 1.92187,9.08984 1.92969,13.69531 0.008,4.53516 -0.90625,7.65625 -2.70704,9.28125 z m 0,0"
       inkscape:connector-curvature="0" />
  </g>
  <g
     id="g255"
     transform="matrix(0.46867244,0,0,0.46867244,595.28725,397.93728)">
    <g
       id="g198">
	<g
   id="g196">
		<path
   id="path194"
   d="m 509.982,380.674 c -6.038,-18.941 -23.777,-30.446 -37.593,-36.763 -28.384,-12.976 -59.512,-40.574 -87.356,-72.09 l 4.154,-2.551 c 3.575,-2.195 4.694,-6.874 2.499,-10.449 -2.196,-3.577 -6.873,-4.692 -10.45,-2.499 l -6.225,3.822 c -3.638,-4.361 -7.201,-8.769 -10.678,-13.2 l 6.181,-4.017 c 3.518,-2.286 4.516,-6.992 2.229,-10.51 -2.286,-3.519 -6.994,-4.517 -10.51,-2.23 l -7.15,4.648 c -4.004,-5.39 -7.858,-10.775 -11.537,-16.111 l 5.307,-3.296 c 3.565,-2.214 4.659,-6.898 2.444,-10.462 -2.216,-3.566 -6.899,-4.66 -10.463,-2.444 l -5.737,3.565 c -10.014,-15.469 -18.31,-30.17 -24.198,-42.89 -0.851,-2.282 -8.099,-23.21 6.35,-37.658 2.967,-2.967 2.967,-7.778 -0.001,-10.744 -2.966,-2.967 -7.777,-2.967 -10.744,0 -15.575,15.576 -14.263,35.425 -11.94,46.271 -9.082,2.578 -26.163,6.855 -45.351,8.775 -45.518,4.558 -67.888,-7.296 -78.633,-18.042 -39.043,-39.042 -41.575,-77.949 -41.595,-78.311 -0.149,-3.186 -2.272,-5.938 -5.314,-6.893 -3.044,-0.955 -6.357,0.091 -8.3,2.621 L 1.572,217.365 c -1.292,1.684 -1.822,3.83 -1.461,5.921 0.361,2.091 1.58,3.935 3.362,5.087 2.126,1.375 213.344,137.893 272.866,174.032 48.443,29.412 114.283,43.351 164.693,43.35 15.222,0 29.044,-1.272 40.546,-3.773 1.89,-0.41 3.552,-1.526 4.648,-3.12 l 23.617,-34.354 c 0.016,-0.023 0.027,-0.051 0.044,-0.075 0.183,-0.273 0.349,-0.558 0.496,-0.853 0.028,-0.054 0.051,-0.109 0.077,-0.165 0.13,-0.278 0.243,-0.563 0.339,-0.857 0.01,-0.029 0.025,-0.057 0.034,-0.086 0.006,-0.021 0.019,-0.066 0.028,-0.094 0.009,-0.032 0.019,-0.064 0.028,-0.096 0.47,-1.596 2.695,-10.313 -0.907,-21.608 z M 181.707,293.419 c 58.135,37.165 97.92,62.275 118.252,74.632 48.443,29.413 114.283,43.35 164.692,43.35 8.021,0 15.638,-0.363 22.747,-1.063 l -11.957,17.392 c -23.67,4.537 -56.217,3.738 -89.962,-2.261 C 347.296,418.681 311.336,405.877 284.225,389.417 231.002,357.104 55.745,244.043 18.642,220.085 l 16.18,-21.064 c 54.161,34.954 96.012,61.822 121.842,78.373 1.269,0.813 2.687,1.201 4.091,1.201 2.503,0 4.953,-1.236 6.403,-3.5 2.264,-3.533 1.236,-8.231 -2.298,-10.495 -11.441,-7.331 -26.032,-16.691 -43.438,-27.877 7.952,-14.643 12.129,-31.048 12.129,-47.885 0,-23.357 -8.193,-46.109 -23.068,-64.065 -2.678,-3.232 -7.468,-3.68 -10.698,-1.004 -3.23,2.677 -3.68,7.467 -1.003,10.697 12.623,15.236 19.575,34.546 19.575,54.371 0,13.913 -3.365,27.469 -9.763,39.638 C 89.766,216.366 68.16,202.452 44.108,186.93 l 72.964,-94.991 c 4.646,16.911 15.844,43.684 42.761,70.601 38.645,38.645 116.899,19.603 140.053,12.831 5.899,11.911 13.541,25.097 22.354,38.7 l -25.812,16.034 c -3.565,2.214 -4.659,6.898 -2.444,10.462 1.439,2.317 3.921,3.589 6.461,3.589 1.37,0 2.754,-0.37 4.002,-1.145 l 26.238,-16.299 c 3.753,5.455 7.662,10.933 11.692,16.382 l -20.513,13.333 c -3.518,2.287 -4.516,6.993 -2.229,10.511 1.456,2.24 3.891,3.458 6.377,3.458 1.419,0 2.855,-0.397 4.133,-1.229 l 21.443,-13.938 c 3.402,4.366 6.867,8.683 10.373,12.929 l -19.075,11.713 c -3.575,2.195 -4.694,6.874 -2.499,10.449 1.434,2.336 3.928,3.623 6.481,3.623 1.356,0 2.728,-0.363 3.969,-1.124 l 21.08,-12.944 c 41.558,47.63 73.969,68.628 94.155,77.855 27.515,12.579 30.867,28.587 30.756,36.049 -23.464,4.075 -55.031,3.148 -87.729,-2.665 -38.183,-6.788 -74.143,-19.592 -101.251,-36.05 -20.233,-12.295 -59.919,-37.343 -117.957,-74.446 -3.536,-2.26 -8.232,-1.227 -10.493,2.309 -2.259,3.535 -1.226,8.232 2.309,10.492 z"
   inkscape:connector-curvature="0" />

	</g>

</g>
    <g
       id="g200">
</g>
    <g
       id="g202">
</g>
    <g
       id="g204">
</g>
    <g
       id="g206">
</g>
    <g
       id="g208">
</g>
    <g
       id="g210">
</g>
    <g
       id="g212">
</g>
    <g
       id="g214">
</g>
    <g
       id="g216">
</g>
    <g
       id="g218">
</g>
    <g
       id="g220">
</g>
    <g
       id="g222">
</g>
    <g
       id="g224">
</g>
    <g
       id="g226">
</g>
    <g
       id="g228">
</g>
  </g>
  <g
     id="g294"
     transform="matrix(3.7493795,0,0,3.7493795,104.48621,445.73938)">
    <circle
       id="circle257"
       r="1"
       cy="26"
       cx="26" />
    <circle
       id="circle259"
       r="1"
       cy="26"
       cx="38" />
    <path
       id="path261"
       d="m 32,34 c -1.103,0 -2,-0.897 -2,-2 h -2 c 0,2.206 1.794,4 4,4 2.206,0 4,-1.794 4,-4 h -2 c 0,1.103 -0.897,2 -2,2 z"
       inkscape:connector-curvature="0" />
    <path
       id="path263"
       d="m 22,13.417 -1.816,-0.836 c -0.321,0.698 -0.581,1.427 -0.772,2.169 l 1.938,0.499 c 0.16,-0.625 0.379,-1.242 0.65,-1.832 z"
       inkscape:connector-curvature="0" />
    <path
       id="path265"
       d="M 32,7 V 5 c -4.164,0 -8.109,2.024 -10.553,5.416 l 1.623,1.169 C 25.139,8.714 28.477,7 32,7 Z"
       inkscape:connector-curvature="0" />
    <circle
       id="circle267"
       r="1"
       cy="16"
       cx="40" />
    <path
       id="path269"
       d="M 53.612,50.077 C 53.865,48.734 54,47.366 54,46 54,42.188 53.004,38.43 51.12,35.131 49.733,32.701 49,29.862 49,26.923 V 18 C 49,8.626 41.374,1 32,1 22.626,1 15,8.626 15,18 v 8.924 c 0,2.914 -0.751,5.782 -2.171,8.295 -1.971,3.489 -2.945,7.462 -2.817,11.49 0.035,1.108 0.181,2.231 0.395,3.351 C 7.027,53.018 5,57.321 5,62 v 1 H 59 V 62 C 59,57.33 56.981,53.035 53.612,50.077 Z M 12.01,46.645 C 11.895,42.983 12.781,39.373 14.571,36.203 16.16,33.39 17,30.182 17,26.924 V 21 18 C 17,9.729 23.729,3 32,3 40.271,3 47,9.729 47,18 v 3 5.923 c 0,3.287 0.824,6.468 2.384,9.2 C 51.096,39.12 52,42.536 52,46 c 0,0.905 -0.069,1.811 -0.191,2.708 -0.839,-0.547 -1.732,-1.03 -2.686,-1.42 L 38.864,43.09 C 37.731,42.628 37,41.538 37,40.314 V 39.596 C 41.896,36.213 44.965,30.614 44.996,24.445 46.188,23.752 47,22.475 47,21 47,19.393 46.052,18.008 44.666,17.374 44.883,16.954 45,16.486 45,16 c 0,-0.666 -0.215,-1.298 -0.612,-1.817 -0.087,-0.648 -0.382,-1.248 -0.853,-1.719 -0.471,-0.47 -1.069,-0.765 -1.718,-0.851 -1.037,-0.795 -2.598,-0.795 -3.635,0 -0.648,0.086 -1.247,0.381 -1.718,0.852 -0.471,0.471 -0.766,1.07 -0.853,1.718 C 35.215,14.702 35,15.334 35,16 c 0,0.666 0.215,1.298 0.612,1.817 0.087,0.648 0.382,1.248 0.853,1.719 0.471,0.47 1.069,0.765 1.718,0.851 C 38.701,20.785 39.334,21 40,21 c 0.666,0 1.299,-0.215 1.817,-0.613 0.648,-0.086 1.247,-0.381 1.718,-0.852 0.109,-0.109 0.207,-0.227 0.297,-0.349 C 44.526,19.503 45,20.196 45,21 c 0,1.103 -0.897,2 -2,2 H 42 C 36.04,23 34.664,19.441 34.147,16.766 33.95,15.743 33.047,15 32,15 30.953,15 30.05,15.742 29.854,16.765 29.336,19.441 27.96,23 22,23 h -1 c -1.103,0 -2,-0.897 -2,-2 0,-1.103 0.897,-2 2,-2 1.103,0 2,0.897 2,2 h 2 c 0,-2.206 -1.794,-4 -4,-4 -2.206,0 -4,1.794 -4,4 0,1.475 0.812,2.752 2.004,3.446 0.031,6.168 3.1,11.767 7.996,15.151 v 0.718 c 0,1.224 -0.731,2.313 -1.864,2.777 l -10.259,4.197 c -0.951,0.389 -1.841,0.87 -2.678,1.415 -0.097,-0.691 -0.167,-1.379 -0.189,-2.059 z M 15.635,49.139 19,47.762 V 52 c 0,1.654 1.346,3 3,3 h 20 c 1.654,0 3,-1.346 3,-3 v -4.237 l 3.365,1.377 c 0.216,0.088 0.425,0.188 0.635,0.286 V 61 H 15 V 49.425 c 0.21,-0.098 0.419,-0.197 0.635,-0.286 z M 32,39.942 C 25.611,37.67 21.288,31.754 21.025,25 H 22 c 5.508,0 8.811,-2.643 9.816,-7.856 0.033,-0.168 0.335,-0.167 0.367,0 C 33.189,22.357 36.492,25 42,25 h 0.975 C 42.712,31.754 38.389,37.67 32,39.942 Z m -0.316,2.007 0.316,0.105 0.316,-0.105 c 0.947,-0.316 1.855,-0.702 2.719,-1.153 0.102,1.066 0.53,2.051 1.218,2.828 C 35.351,45.085 33.748,46 32,46 c -1.748,0 -3.351,-0.915 -4.253,-2.376 0.688,-0.777 1.115,-1.762 1.218,-2.828 0.863,0.45 1.772,0.837 2.719,1.153 z m 7.215,3.317 C 38.959,45.505 39,45.749 39,46 c 0,1.654 -1.346,3 -3,3 -0.967,0 -1.841,-0.467 -2.394,-1.205 1.741,-0.412 3.27,-1.468 4.254,-2.976 0.083,0.039 0.16,0.088 0.247,0.123 z M 25.894,44.942 c 0.086,-0.035 0.164,-0.084 0.247,-0.123 0.984,1.508 2.513,2.564 4.254,2.976 C 29.841,48.533 28.967,49 28,49 c -1.654,0 -3,-1.346 -3,-3 0,-0.251 0.042,-0.495 0.102,-0.734 z m -2.882,1.179 C 23.078,48.821 25.285,51 28,51 c 1.618,0 3.078,-0.784 4,-2.021 0.922,1.237 2.382,2.021 4,2.021 2.715,0 4.922,-2.179 4.988,-4.879 L 43,46.944 V 52 c 0,0.551 -0.448,1 -1,1 H 22 c -0.552,0 -1,-0.449 -1,-1 V 46.944 Z M 37.293,16.707 C 37.104,16.518 37,16.267 37,16 c 0,-0.267 0.104,-0.518 0.293,-0.707 L 37.586,15 v -0.415 c 0,-0.267 0.104,-0.519 0.293,-0.707 0.188,-0.189 0.44,-0.293 0.707,-0.293 h 0.415 l 0.293,-0.294 c 0.375,-0.377 1.037,-0.377 1.412,0 l 0.293,0.294 h 0.415 c 0.267,0 0.519,0.104 0.707,0.292 0.188,0.189 0.293,0.44 0.293,0.708 V 15 l 0.293,0.293 C 42.896,15.482 43,15.733 43,16 c 0,0.267 -0.104,0.518 -0.293,0.707 L 42.414,17 v 0.415 c 0,0.267 -0.104,0.519 -0.293,0.707 -0.188,0.189 -0.44,0.293 -0.707,0.293 h -0.415 l -0.293,0.294 c -0.375,0.377 -1.037,0.377 -1.412,0 l -0.293,-0.294 h -0.415 c -0.267,0 -0.519,-0.104 -0.707,-0.292 -0.188,-0.189 -0.293,-0.44 -0.293,-0.708 V 17 Z M 13,50.563 V 61 H 7.035 C 7.337,56.748 9.552,52.934 13,50.563 Z M 51,61 V 50.563 c 3.448,2.37 5.663,6.184 5.965,10.437 z"
       inkscape:connector-curvature="0" />
    <path
       id="path271"
       d="m 17,57 h 2 v 2 h -2 z"
       inkscape:connector-curvature="0" />
    <path
       id="path273"
       d="m 21,57 h 22 v 2 H 21 Z"
       inkscape:connector-curvature="0" />
    <path
       id="path275"
       d="m 45,57 h 2 v 2 h -2 z"
       inkscape:connector-curvature="0" />
  </g>
</svg>
