<?xml version="1.0" encoding="UTF-8" standalone="no"?>
<svg
   xmlns:dc="http://purl.org/dc/elements/1.1/"
   xmlns:cc="http://creativecommons.org/ns#"
   xmlns:rdf="http://www.w3.org/1999/02/22-rdf-syntax-ns#"
   xmlns:svg="http://www.w3.org/2000/svg"
   xmlns="http://www.w3.org/2000/svg"
   xmlns:sodipodi="http://sodipodi.sourceforge.net/DTD/sodipodi-0.dtd"
   xmlns:inkscape="http://www.inkscape.org/namespaces/inkscape"
   id="eaba0f5b-03a3-45f8-a356-9e2326be0440"
   data-name="Layer 1"
   width="708.73465"
   height="770.40879"
   viewBox="0 0 708.73465 770.40879"
   version="1.1"
   sodipodi:docname="b.svg"
   inkscape:version="0.92.4 (5da689c313, 2019-01-14)">
  <metadata
     id="metadata79">
    <rdf:RDF>
      <cc:Work
         rdf:about="">
        <dc:format>image/svg+xml</dc:format>
        <dc:type
           rdf:resource="http://purl.org/dc/dcmitype/StillImage" />
      </cc:Work>
    </rdf:RDF>
  </metadata>
  <defs
     id="defs77" />
  <sodipodi:namedview
     pagecolor="#ffffff"
     bordercolor="#666666"
     borderopacity="1"
     objecttolerance="10"
     gridtolerance="10"
     guidetolerance="10"
     inkscape:pageopacity="0"
     inkscape:pageshadow="2"
     inkscape:window-width="1024"
     inkscape:window-height="744"
     id="namedview75"
     showgrid="false"
     inkscape:zoom="0.30633087"
     inkscape:cx="734.44704"
     inkscape:cy="586.56731"
     inkscape:window-x="0"
     inkscape:window-y="0"
     inkscape:window-maximized="1"
     inkscape:current-layer="g6271" />
  <polygon
     points="648.308 262.418 579.683 278.122 550.687 223.436 609.367 200.526 648.308 262.418"
     fill="#2f2e41"
     id="polygon2" />
  <path
     d="M729.23811,399.67008l-9.49923-18.54562a11.11048,11.11048,0,0,1,6.46878-15.63613h0a11.11048,11.11048,0,0,1,14.42386,9.0356l2.58486,18.52486,24.2781,38.25639V408.49848l27.22089,2.9428-3.81048,40.64508a15.34294,15.34294,0,0,1-5.6354,10.50376h0a15.3429,15.3429,0,0,1-23.0024-4.395Z"
     transform="translate(-245.63267 -64.7956)"
     fill="#a0616a"
     id="path4"
     style="fill:#cdc3c4;fill-opacity:1" />
  <path
     d="M935.23407,768.25571l-21.33529,1.4714-13.9783-131.69028-80.927-79.45558-8.0927,211.14586H786.6227c-14.80731-129.64263-50.31847-267.62528-4.4142-300.90124l12.5069-21.3353,75.77709,13.9783,2.9428,29.428,13.60537,34.18381,51.25506,86.11123a32.29554,32.29554,0,0,1,4.4962,18.2743Z"
     transform="translate(-245.63267 -64.7956)"
     fill="#2f2e41"
     id="path6"
     style="fill:#010107;fill-opacity:1" />
  <path
     d="M800.29947,826.376h0a17.48364,17.48364,0,0,1-17.43587-18.77519l3.02344-40.8165c8.957-9.17788,17.266-7.97779,25.0138,2.2071l6.60732,36.81221A17.48364,17.48364,0,0,1,800.29947,826.376Z"
     transform="translate(-245.63267 -64.7956)"
     fill="#cacaca"
     id="path8" />
  <path
     d="M943.08979,835.2044h0a11.26876,11.26876,0,0,1-8.384-3.73926l-40.594-45.20086a12.63139,12.63139,0,0,1,1.47376-18.27674l16.10618-12.97443,23.54239,10.2998L953.769,820.33843A11.26876,11.26876,0,0,1,943.08979,835.2044Z"
     transform="translate(-245.63267 -64.7956)"
     fill="#cacaca"
     id="path10" />
  <circle
     cx="592.2544"
     cy="232.06476"
     r="26.76602"
     fill="#a0616a"
     id="circle12"
     style="fill:#cdc3c4;fill-opacity:1" />
  <path
     d="M853.20354,411.07343H819.36135l-7.72485-67.31654c8.23711-11.61025,10.91506-23.73967,7.72485-36.41714h33.84219c-5.21815,11.38532-4.32206,22.784,9.19625,34.21Z"
     transform="translate(-245.63267 -64.7956)"
     fill="#a0616a"
     id="path14"
     style="fill:#cdc3c4;fill-opacity:1" />
  <path
     d="M869.02109,462.94027c-26.51178,9.72864-51.3677,6.72156-74.30569-11.0355-.55359-21.26064-5.74706-47.63949-13.01606-76.30791a20.1818,20.1818,0,0,1,9.66273-22.55074l21.74583-12.232L837.386,398.19868l22.071-58.856,14.67619,3.26138a16.69977,16.69977,0,0,1,12.99547,14.86036C890.97521,401.11506,889.82544,440.47238,869.02109,462.94027Z"
     transform="translate(-245.63267 -64.7956)"
     fill="#e6e6e6"
     id="path16" />
  <path
     d="M797.6582,426.15527c-15.3536,1.48551-26.38174-4.85709-33.84219-17.65679l5.1499-23.5812a36.0852,36.0852,0,0,1,25.21882-34.41023l2.73777-.86456Z"
     transform="translate(-245.63267 -64.7956)"
     fill="#e6e6e6"
     id="path18" />
  <path
     d="M908.01318,531.36035l3.63791,16.37059a11.76974,11.76974,0,0,1-13.23539,14.19274h0a11.76974,11.76974,0,0,1-9.74515-14.18544l3.97216-17.92848-11.8504-114.69,23.5424-10.2998Z"
     transform="translate(-245.63267 -64.7956)"
     fill="#a0616a"
     id="path20"
     style="fill:#cdc3c4;fill-opacity:1" />
  <path
     d="M877.11378,420.26967c15.35361,1.48552,26.38174-4.85709,33.8422-17.65679l-5.1499-23.58119a36.0852,36.0852,0,0,0-25.21883-34.41024l-2.73777-.86456Z"
     transform="translate(-245.63267 -64.7956)"
     fill="#e6e6e6"
     id="path22" />
  <path
     d="M852.48671,256.88984s15.20227,2.85954,18.71788,21.81956a34.80711,34.80711,0,0,1,.29772,9.68118c-.351,3.64961.15818,11.358,8.0827,20.4345a198.70125,198.70125,0,0,1,14.42888,18.53058h0l-15.885,4.2288-7.09739-26.31856a134.63465,134.63465,0,0,0-15.73229-36.15916l-.14592-.23412s-5.27594,14.09718-19.41691,16.02976l4.36014-5.74055s-16.53089,9.55609-25.89656,12.4753a6.15352,6.15352,0,0,0-1.98569,10.70039q.09965.07837.203.15685c6.88866,5.23217,20.94206,17.71664,15.39,29.79369s.92251,14.279.92251,14.279l-11.939-4.542-5.46446-2.34.55216,4.04028-26.67592.55886s-7.20852-.04378,5.59581-19.28557c0,0,3.08958-7.21491.55318-12.72687a29.279,29.279,0,0,1-2.95681-13.41605C789.20109,279.45639,797.37326,239.99028,852.48671,256.88984Z"
     transform="translate(-245.63267 -64.7956)"
     fill="#2f2e41"
     id="path24"
     style="fill:#000000;fill-opacity:1" />
  <path
     d="M749.1268,327.21612l-3.79168-1.27017,34.796-103.87213a63.40181,63.40181,0,0,0-39.97931-80.25734l-.00006,0-.00031-.00009-220.067-73.72a63.40184,63.40184,0,0,0-80.25738,39.97919l-.00006.00019L248.93341,677.92627a63.40186,63.40186,0,0,0,39.97928,80.25738h.00018l220.067,73.72a63.40187,63.40187,0,0,0,80.25745-39.97912l.00006-.00025L720.56662,399.88388l3.79175,1.2702Z"
     transform="translate(-245.63267 -64.7956)"
     fill="#3f3d56"
     id="path26"
     style="fill-opacity:1;fill:#000000" />
  <path
     d="M737.33792,158.26973l-28.726-9.62291a22.49486,22.49486,0,0,1-29.59241,22.77L552.94583,129.18353a22.49477,22.49477,0,0,1-9.90466-36.00115L516.211,84.19455a47.3478,47.3478,0,0,0-59.9353,29.85608L265.662,683.06518a47.34782,47.34782,0,0,0,29.85611,59.9353h.00012l221.127,74.07514a47.3478,47.3478,0,0,0,59.93531-29.85614h0L767.19412,218.205A47.34775,47.34775,0,0,0,737.338,158.26974Z"
     transform="translate(-245.63267 -64.7956)"
     fill="#fff"
     id="path28" />
  <path
     d="M682.03769,349.16793,446.05222,270.11538a4.61415,4.61415,0,0,1-2.90619-5.834l19.60956-58.53792a4.61422,4.61422,0,0,1,5.834-2.90616l235.9856,79.05251a4.61422,4.61422,0,0,1,2.90619,5.834l-19.60956,58.538A4.61422,4.61422,0,0,1,682.03769,349.16793ZM468.00406,204.58531a2.76829,2.76829,0,0,0-3.50043,1.74368l-19.60955,58.53792a2.76831,2.76831,0,0,0,1.74371,3.50043l235.98547,79.05255a2.7683,2.7683,0,0,0,3.50043-1.74372l19.60956-58.53793a2.76829,2.76829,0,0,0-1.74372-3.5004Z"
     transform="translate(-245.63267 -64.7956)"
     fill="#3f3d56"
     id="path30" />
  <path
     d="M604.44925,580.78289,368.46378,501.73034a4.61421,4.61421,0,0,1-2.90619-5.834l36.2984-108.357a4.61423,4.61423,0,0,1,5.834-2.90616l235.98548,79.05256a4.61416,4.61416,0,0,1,2.90619,5.834l-36.2984,108.357A4.61423,4.61423,0,0,1,604.44925,580.78289ZM407.10446,386.38119a2.76827,2.76827,0,0,0-3.50042,1.74371l-36.2984,108.357a2.76826,2.76826,0,0,0,1.74371,3.50043l235.98541,79.05252a2.76827,2.76827,0,0,0,3.50043-1.74372l36.2984-108.357a2.76831,2.76831,0,0,0-1.74371-3.50043Z"
     transform="translate(-245.63267 -64.7956)"
     fill="#3f3d56"
     id="path32" />
  <path
     d="M649.83988,439.48031,544.95719,404.34579a4.61415,4.61415,0,0,1-2.90619-5.834l19.60955-58.538a4.61423,4.61423,0,0,1,5.834-2.90616l104.88269,35.13456a4.61415,4.61415,0,0,1,2.90619,5.834l-19.60956,58.53793A4.61421,4.61421,0,0,1,649.83988,439.48031ZM566.909,338.8157a2.76824,2.76824,0,0,0-3.50043,1.74368L543.799,399.09732a2.76828,2.76828,0,0,0,1.74372,3.50039l104.88269,35.13455a2.76827,2.76827,0,0,0,3.50042-1.74371l19.60956-58.5379a2.76831,2.76831,0,0,0-1.74371-3.50043Z"
     transform="translate(-245.63267 -64.7956)"
     fill="#e6e6e6"
     id="path34" />
  <path
     d="M425.915,678.45593,321.03232,643.32135a4.61422,4.61422,0,0,1-2.90619-5.834l36.59119-109.231a4.61422,4.61422,0,0,1,5.834-2.90619L465.434,560.48468a4.6142,4.6142,0,0,1,2.90619,5.834L431.749,675.5498A4.61422,4.61422,0,0,1,425.915,678.45593ZM359.96579,527.0982a2.76826,2.76826,0,0,0-3.50043,1.74371l-36.59118,109.231a2.76831,2.76831,0,0,0,1.74371,3.50043l104.88269,35.13452a2.76826,2.76826,0,0,0,3.50043-1.74371l36.59119-109.231a2.76827,2.76827,0,0,0-1.74372-3.50043Z"
     transform="translate(-245.63267 -64.7956)"
     fill="#e6e6e6"
     id="path36" />
  <path
     d="M555.26975,721.78833,450.38706,686.6538a4.6142,4.6142,0,0,1-2.90619-5.834l36.59118-109.231a4.61422,4.61422,0,0,1,5.834-2.90619l104.88275,35.13452a4.61422,4.61422,0,0,1,2.90619,5.834L561.10379,718.8822A4.61417,4.61417,0,0,1,555.26975,721.78833ZM489.32053,570.4306a2.76826,2.76826,0,0,0-3.50043,1.74371l-36.59119,109.231a2.76827,2.76827,0,0,0,1.74372,3.50043l104.88269,35.13452a2.76826,2.76826,0,0,0,3.50043-1.74371l36.59118-109.231a2.76826,2.76826,0,0,0-1.74371-3.50043Z"
     transform="translate(-245.63267 -64.7956)"
     fill="#e6e6e6"
     id="path38" />
  <path
     d="M474.83914,436.62057a3.129,3.129,0,1,0-2.02337,5.92185l.03564.012,139.86853,46.85443a3.129,3.129,0,1,0,2.02027-5.92294l-.03247-.01087Z"
     transform="translate(-245.63267 -64.7956)"
     fill="#e6e6e6"
     id="path40" />
  <path
     d="M468.87583,454.422a3.129,3.129,0,1,0-2.02338,5.92185l.03564.012L527.074,480.51742a3.129,3.129,0,0,0,1.98773-5.93381Z"
     transform="translate(-245.63267 -64.7956)"
     fill="#e6e6e6"
     id="path42" />
  <path
     d="M404.57523,464.535c-2.2569-.756-4.53937-.0401-5.08728,1.59567s.84265,3.58213,3.09955,4.33817l192.97558,64.64471c2.25684.756,4.53931.0401,5.08728-1.59564s-.84265-3.58215-3.09955-4.33813Z"
     transform="translate(-245.63267 -64.7956)"
     fill="#e6e6e6"
     id="path44" />
  <path
     d="M398.61191,482.33645c-2.2569-.756-4.53937-.0401-5.08728,1.59567s.84265,3.58216,3.09955,4.33817L589.59976,552.915c2.2569.756,4.53937.0401,5.08728-1.59564s-.84265-3.58215-3.09954-4.33813Z"
     transform="translate(-245.63267 -64.7956)"
     fill="#e6e6e6"
     id="path46" />
  <path
     d="M539.82913,248.4181a3.12895,3.12895,0,0,0-2,5.92969l.01227.00412,139.86853,46.85445a3.129,3.129,0,0,0,1.98773-5.93381Z"
     transform="translate(-245.63267 -64.7956)"
     fill="#e6e6e6"
     id="path48" />
  <path
     d="M533.86576,266.21957a3.12895,3.12895,0,1,0-2,5.92969l.01226.00412L592.06388,292.315a3.129,3.129,0,0,0,1.98773-5.93381Z"
     transform="translate(-245.63267 -64.7956)"
     fill="#e6e6e6"
     id="path50" />
  <path
     d="M520.3887,396.12744l-98.389-32.95923,36.589-32.34857a4.98637,4.98637,0,0,1,8.18963,2.74344l4.1521,20.44555,26.57678-23.49624a6.24306,6.24306,0,0,1,10.25348,3.43481Zm-94.77594-33.69309,92.334,30.93088-11.993-59.05124a4.399,4.399,0,0,0-7.22516-2.42035l-28.9693,25.61109-4.7879-23.57486a3.1423,3.1423,0,0,0-5.16132-1.729Z"
     transform="translate(-245.63267 -64.7956)"
     fill="#e6e6e6"
     id="path52" />
  <path
     d="M646.24741,438.28872l-98.389-32.95923,36.589-32.34857a4.9864,4.9864,0,0,1,8.18964,2.74344l4.1521,20.44556,26.57678-23.49625a6.24306,6.24306,0,0,1,10.25348,3.43482Zm-94.77594-33.69308,92.334,30.93088-11.993-59.05124a4.399,4.399,0,0,0-7.22516-2.42035L595.618,399.666l-4.7879-23.57486a3.1423,3.1423,0,0,0-5.16132-1.729Z"
     transform="translate(-245.63267 -64.7956)"
     fill="#e6e6e6"
     id="path54" />
  <path
     d="M520.48508,396.14788,415.60239,361.01333a4.61415,4.61415,0,0,1-2.90619-5.834l19.60956-58.53794a4.61419,4.61419,0,0,1,5.834-2.90615l104.88275,35.13458a4.61415,4.61415,0,0,1,2.90619,5.834l-19.60956,58.53794A4.61419,4.61419,0,0,1,520.48508,396.14788ZM437.55429,295.48327a2.76823,2.76823,0,0,0-3.50042,1.74368l-19.60956,58.53794a2.76826,2.76826,0,0,0,1.74371,3.50039l104.88263,35.13453a2.7683,2.7683,0,0,0,3.50043-1.74372l19.60956-58.5379a2.76827,2.76827,0,0,0-1.74372-3.50043Z"
     transform="translate(-245.63267 -64.7956)"
     fill="#e6e6e6"
     id="path56" />
  <path
     d="M375.354,555.36206a3.129,3.129,0,0,0-2.0185,5.92352l.03076.01031,60.18586,20.16163a3.129,3.129,0,1,0,1.98773-5.93384Z"
     transform="translate(-245.63267 -64.7956)"
     fill="#e6e6e6"
     id="path58" />
  <path
     d="M369.49826,572.84246a3.129,3.129,0,0,0-1.98779,5.93384l60.18585,20.16162a3.129,3.129,0,0,0,1.98779-5.93384Z"
     transform="translate(-245.63267 -64.7956)"
     fill="#e6e6e6"
     id="path60" />
  <path
     d="M381.01962,638.36328A19.69532,19.69532,0,1,1,405.951,625.944h0A19.71763,19.71763,0,0,1,381.01962,638.36328Zm11.92646-35.6026a17.8518,17.8518,0,1,0,11.25683,22.59771h0a17.87257,17.87257,0,0,0-11.25677-22.59771Z"
     transform="translate(-245.63267 -64.7956)"
     fill="#e6e6e6"
     id="path62" />
  <path
     d="M540.46713,691.77648a3.129,3.129,0,1,0,2.0185-5.92352l-.03076-.01031L482.269,665.681a3.129,3.129,0,0,0-2.01849,5.92352l.03076.01031Z"
     transform="translate(-245.63267 -64.7956)"
     fill="#e6e6e6"
     id="path64" />
  <path
     d="M546.32285,674.29608a3.129,3.129,0,1,0,1.98773-5.93384l-60.18579-20.16156a3.129,3.129,0,0,0-2.0185,5.92352l.03077.01032Z"
     transform="translate(-245.63267 -64.7956)"
     fill="#e6e6e6"
     id="path66" />
  <path
     d="M534.80149,608.77526a19.69532,19.69532,0,1,1-24.93134,12.41932h0A19.71763,19.71763,0,0,1,534.80149,608.77526ZM522.875,644.3778a17.8518,17.8518,0,1,0-11.25683-22.59771h0A17.87258,17.87258,0,0,0,522.875,644.3778Z"
     transform="translate(-245.63267 -64.7956)"
     fill="#e6e6e6"
     id="path68" />
  <path
     id="e72023ff-0082-4fca-8d72-e00ad2ae90fe"
     data-name="Path 37"
     d="M491.07412,228.04425l-21.24551,11.53344,11.79952,21.09854,4.79372-2.64145-8.8767-16.11208,16.245-8.95139Z"
     transform="translate(-245.63267 -64.7956)"
     fill="#cacaca" />
  <path
     id="b083f72c-d34c-4f98-b37f-92bc69d235e2"
     data-name="Path 38"
     d="M504.6121,231.96309l11.799,21.09885-21.245,11.53314-2.64146-4.79372,16.11157-8.87824-8.95212-16.24568Z"
     transform="translate(-245.63267 -64.7956)"
     fill="#cacaca" />
  <path
     id="ba479c6e-ee66-4ff8-ba8d-25a42d4df816"
     data-name="Path 37"
     d="M430.07412,417.04425l-21.24551,11.53344,11.79952,21.09854,4.79372-2.64145-8.8767-16.11208,16.245-8.95139Z"
     transform="translate(-245.63267 -64.7956)"
     fill="#cacaca" />
  <path
     id="a30ddd6a-0b21-4fb7-ac0e-8428853b1754"
     data-name="Path 38"
     d="M443.6121,420.96309l11.799,21.09885-21.245,11.53314-2.64146-4.79372,16.11157-8.87824-8.95212-16.24568Z"
     transform="translate(-245.63267 -64.7956)"
     fill="#cacaca" />
  <g
     id="g6271"
     transform="matrix(4.0961007,0,0,4.0961007,1218.2115,-129.60269)">
    <path
       style="fill:#9ddaa5;stroke-width:0.32000002"
       d="m -155.89259,85.49091 c 0.308,-0.0805 0.812,-0.0805 1.12,0 0.308,0.0805 0.056,0.14634 -0.56,0.14634 -0.616,0 -0.868,-0.0659 -0.56,-0.14634 z m -3.51391,-0.32118 c 0.31135,-0.0811 0.74335,-0.0758 0.96,0.0119 0.21665,0.0876 -0.0381,0.15403 -0.56609,0.14751 -0.528,-0.007 -0.70526,-0.0782 -0.39391,-0.15937 z m 7.36,0 c 0.31135,-0.0811 0.74335,-0.0758 0.96,0.0119 0.21665,0.0876 -0.0381,0.15403 -0.56609,0.14751 -0.528,-0.007 -0.70526,-0.0782 -0.39391,-0.15937 z m -32.35556,-0.73824 c 0,-0.44 0.0726,-0.62 0.1614,-0.4 0.0888,0.22 0.0888,0.58 0,0.8 -0.0888,0.22 -0.1614,0.04 -0.1614,-0.4 z m 24.04473,-4.30154 c -1.09161,-0.24862 -3.25161,-0.98167 -4.8,-1.62898 -1.54839,-0.64733 -3.12582,-1.24799 -3.5054,-1.33481 -0.37958,-0.0868 -2.36815,0.23863 -4.41906,0.72324 -5.05194,1.19372 -5.02723,1.21922 -3.78271,-3.90366 l 0.92469,-3.80629 -1.04959,-2.23398 c -3.08514,-6.56657 -3.6653,-13.23929 -1.68393,-19.36782 1.93692,-5.99107 7.94696,-12.4471 13.90074,-14.93229 4.56558,-1.90575 12.03754,-2.23861 16.4731,-0.73386 7.56534,2.56652 12.86644,7.60464 15.65673,14.87999 1.0215,2.66346 1.11497,3.20956 1.24321,7.26323 0.17295,5.46678 -0.35425,8.11349 -2.43372,12.21814 -1.21649,2.40121 -2.01939,3.46001 -4.52897,5.97242 -3.32366,3.32741 -6.10192,5.03187 -10.41035,6.38673 -2.88419,0.90698 -8.69262,1.15664 -11.58474,0.49794 z m 16.25026,-11.48207 c 1.64873,-0.87186 2.45357,-2.09673 2.73714,-4.16561 l 0.20472,-1.49363 -3.07846,-1.43858 c -1.69316,-0.79121 -3.27364,-1.43857 -3.51219,-1.43857 -0.23855,0 -1.08689,0.72 -1.88519,1.6 -1.17131,1.29119 -1.65126,1.6 -2.4867,1.6 -3.00129,0 -10.5585,-6.49657 -10.56364,-9.08105 -6.8e-4,-0.33057 0.442,-1.37568 0.9837,-2.32247 l 0.9849,-1.72142 -0.55099,-1.67753 c -1.23285,-3.75351 -1.92471,-4.94364 -3.09925,-5.33127 -1.34573,-0.44413 -2.30865,-0.12854 -3.48303,1.14154 -2.93881,3.1783 -2.66146,7.32566 0.84164,12.58575 4.90105,7.35918 12.77537,12.46999 19.2315,12.48217 1.76406,0.003 2.58292,-0.16137 3.67585,-0.73933 z m 16.95975,-6.16305 c 0.0154,-0.37279 0.0912,-0.44861 0.19333,-0.19334 0.0924,0.231 0.0811,0.507 -0.0252,0.61334 -0.10634,0.10633 -0.18197,-0.0827 -0.16807,-0.42 z m -57.24289,-1.57334 c 0.007,-0.528 0.0782,-0.70526 0.15938,-0.39391 0.0811,0.31135 0.0758,0.74335 -0.0119,0.96 -0.0877,0.21665 -0.15404,-0.0381 -0.14752,-0.56609 z m 57.61186,-0.48 c 0,-0.616 0.0659,-0.868 0.14635,-0.56 0.0805,0.308 0.0805,0.812 0,1.12 -0.0805,0.308 -0.14635,0.056 -0.14635,-0.56 z m -57.91354,-3.68 c 0.004,-0.704 0.0691,-0.95432 0.14562,-0.55627 0.0765,0.39805 0.0736,0.97405 -0.006,1.28 -0.0801,0.30595 -0.14272,-0.0197 -0.13917,-0.72373 z m 57.92,-3.84 c 0.004,-0.704 0.0691,-0.95432 0.14563,-0.55627 0.0765,0.39805 0.0736,0.97405 -0.006,1.28 -0.0801,0.30595 -0.14271,-0.0197 -0.13916,-0.72373 z m -57.60646,-0.8 c 0,-0.616 0.0659,-0.868 0.14634,-0.56 0.0805,0.308 0.0805,0.812 0,1.12 -0.0805,0.308 -0.14634,0.056 -0.14634,-0.56 z m 57.23103,-1.78667 c 0.0154,-0.37278 0.0912,-0.4486 0.19333,-0.19333 0.0924,0.231 0.0811,0.507 -0.0252,0.61333 -0.10634,0.10634 -0.18197,-0.0827 -0.16807,-0.42 z M -160.6865,27.56973 c 0.31135,-0.0811 0.74335,-0.0758 0.96,0.0119 0.21665,0.0877 -0.0381,0.15404 -0.56609,0.14752 -0.528,-0.007 -0.70526,-0.0782 -0.39391,-0.15938 z m 9.6,0 c 0.31135,-0.0811 0.74335,-0.0758 0.96,0.0119 0.21665,0.0877 -0.0381,0.15404 -0.56609,0.14752 -0.528,-0.007 -0.70526,-0.0782 -0.39391,-0.15938 z m -5.59763,-0.33296 c 0.75265,-0.0676 1.90465,-0.0667 2.56,0.002 0.65535,0.0688 0.0395,0.12407 -1.36846,0.12291 -1.408,-0.001 -1.94419,-0.0574 -1.19154,-0.12502 z"
       id="path6262"
       inkscape:connector-curvature="0" />
    <path
       style="fill:#42c152;stroke-width:0.32000002"
       d="m -161.00898,79.30924 c -1.27401,-0.33385 -3.49537,-1.11793 -4.93634,-1.74238 -1.44098,-0.62445 -2.83495,-1.13537 -3.09772,-1.13537 -0.26277,0 -2.04554,0.38067 -3.96172,0.84593 -2.35532,0.57189 -3.58911,0.74079 -3.80853,0.52137 -0.21942,-0.21942 -0.0581,-1.37878 0.49807,-3.57876 1.00676,-3.98255 1.00859,-4.16065 0.0623,-6.03918 -2.43254,-4.82897 -3.40642,-10.01446 -2.78738,-14.84151 0.74894,-5.8399 2.69337,-9.7129 7.04409,-14.03069 3.16106,-3.13714 6.4449,-5.04966 10.49186,-6.1105 3.44079,-0.90195 8.61994,-0.90412 12.0235,-0.005 8.19017,2.16349 14.92389,8.92213 17.06565,17.12878 0.6759,2.58985 0.66267,9.23489 -0.0236,11.86961 -1.18169,4.53655 -4.34549,9.43355 -8.02152,12.41589 -2.42045,1.9637 -6.9917,4.18032 -9.97541,4.83712 -3.10779,0.68411 -7.66912,0.62576 -10.57322,-0.13526 z m 16.27731,-9.72868 c 1.47156,-0.61494 2.7632,-1.67411 3.2945,-2.70154 0.56478,-1.09215 0.92171,-3.60979 0.58322,-4.11378 -0.28866,-0.4298 -6.2998,-3.29375 -6.91325,-3.29375 -0.2142,0 -1.09862,0.72 -1.96539,1.6 -1.86095,1.88936 -2.59164,1.99885 -5.05064,0.7568 -2.04885,-1.03488 -6.81288,-5.70159 -7.1364,-6.99062 -0.17495,-0.69705 -0.0252,-1.28589 0.61807,-2.43023 1.09068,-1.94027 1.06884,-2.94647 -0.13156,-6.0592 -1.1435,-2.96519 -2.03225,-3.83675 -3.91242,-3.83675 -1.67111,0 -3.00874,1.01832 -4.19102,3.19056 -2.28807,4.20393 -0.17564,9.92757 6.00701,16.27607 3.78016,3.88156 7.83201,6.40225 12.17382,7.57342 2.14064,0.57742 5.27883,0.59117 6.62406,0.029 z"
       id="path6260"
       inkscape:connector-curvature="0" />
  </g>
</svg>
